<svg width="1009" height="1009" viewBox="0 0 1009 1009" fill="none" xmlns="http://www.w3.org/2000/svg">
<path d="M112.111 140.139C112.111 140.139 112.111 112.111 140.139 112.111H308.306C308.306 112.111 336.334 112.111 336.334 140.139V196.194H112.111V140.139Z" fill="#66757F"/>
<path d="M0 280.278C0 280.278 0 168.167 112.111 168.167H896.889C896.889 168.167 1009 168.167 1009 280.278V784.778C1009 784.778 1009 896.889 896.889 896.889H112.111C112.111 896.889 0 896.889 0 784.778V280.278Z" fill="#31373D"/>
<path d="M588.582 812.806C743.376 812.806 868.86 687.321 868.86 532.528C868.86 377.735 743.376 252.25 588.582 252.25C433.789 252.25 308.305 377.735 308.305 532.528C308.305 687.321 433.789 812.806 588.582 812.806Z" fill="#CCD6DD"/>
<path d="M588.584 756.75C712.418 756.75 812.806 656.362 812.806 532.528C812.806 408.693 712.418 308.306 588.584 308.306C464.749 308.306 364.361 408.693 364.361 532.528C364.361 656.362 464.749 756.75 588.584 756.75Z" fill="#31373D"/>
<path d="M588.584 672.667C665.981 672.667 728.723 609.924 728.723 532.528C728.723 455.131 665.981 392.389 588.584 392.389C511.188 392.389 448.445 455.131 448.445 532.528C448.445 609.924 511.188 672.667 588.584 672.667Z" fill="#3B88C3"/>
<path d="M336.334 266.264C336.334 289.499 317.527 308.305 294.292 308.305H154.153C130.918 308.305 112.111 289.499 112.111 266.264C112.111 243.029 130.918 224.222 154.153 224.222H294.292C317.527 224.222 336.334 243.029 336.334 266.264Z" fill="#F5F8FA"/>
</svg>
